# xmcd
#
# Track frame offsets:
#	150
#	22907
#	53254
#	79089
#	95074
#	132096
#	139716
#	163278
#	185285
#	202694
#	233123
#	270033
#	291183
#	307140
#
# Disc length: 4569 seconds
#
# Revision: 1
# Processed by: cddbd v1.5.1PL2 Copyright (c) Steve Scherf et al.
# Submitted via: EasyCDDAExtractor 9.0.0.1
#
DISCID=b111d70e
DTITLE=Guns and Roses - POPB Paris 20-06-06 Disc 2
DYEAR=2006
DGENRE=Hard Rock
TTITLE0=Out Ta Get Me
TTITLE1=Ron Solo [w/ Don't Cry]
TTITLE2=Better
TTITLE3=Jam/ Axl's Piano Solo
TTITLE4=November Rain
TTITLE5=Jam
TTITLE6=IRS
TTITLE7=My Michelle
TTITLE8=Used To Love Her [Feat Izzy Stradlin]
TTITLE9=Patience [Feat Izzy Stradlin]
TTITLE10=Nightrain [Feat Izzy Stradlin]
TTITLE11=Chinese Democracy
TTITLE12=Robin Solo
TTITLE13=Paradise City [Feat Izzy Stradlin]
EXTD=
EXTT0=
EXTT1=
EXTT2=
EXTT3=
EXTT4=
EXTT5=
EXTT6=
EXTT7=
EXTT8=
EXTT9=
EXTT10=
EXTT11=
EXTT12=
EXTT13=
PLAYORDER=
